# xmcd CD database file
#
# Track frame offsets:
#	150
#	23761
#	42155
#	61280
#	84889
#	107666
#	126359
#	137734
#	158682
#	175250
#	194930
#	220589
#	241726
#	272195
#	293415
#	316514
#
# Disc length: 4435 seconds
#
# Revision: 0
# Processed by: cddbd v1.5.2PL0 Copyright (c) Steve Scherf et al.
# Submitted via: CDex 1.51
#
DISCID=d6115110
DTITLE=Various Artist - Bar Lounge Classics - Mediterranean Edition - CD 2
DYEAR=2007
DGENRE=New Age
TTITLE0=Bobby Brazil - Brahma vs Antarctica 
TTITLE1=Naoki Kenji - Rain On
TTITLE2=Decò - We Put This Together 
TTITLE3=The Sura Quintet - Lampedusa (Sunset Session) 
TTITLE4=Bebo Best and Super Lounge Orchestra - Le fleur de la musique 
TTITLE5=Lemongrass - Aloha 
TTITLE6=Bazeado  - Fuga e Mistério 
TTITLE7=Lyambiko - Inside Outside 
TTITLE8=Mayra Andrade - Nha Sibitchi 
TTITLE9=Nylon - Rio70 
TTITLE10=The Dining Rooms - Afrolicious (Boozoo Bajou Remix) 
TTITLE11=S-Tone Inc. - Vai Ser Bom 
TTITLE12=Paolo Fedrghini and Marco Bianchi - Spread Your Love 
TTITLE13=Smood vs. Natascha Grin - Ille Bras 
TTITLE14=Zimpala feat. Jonathan Pisa - Hasta La Vista (Steppatronic Mix) 
TTITLE15=Majestic 12 - Superstar 
EXTD=YEAR: 2007
EXTT0=
EXTT1=
EXTT2=
EXTT3=
EXTT4=
EXTT5=
EXTT6=
EXTT7=
EXTT8=
EXTT9=
EXTT10=
EXTT11=
EXTT12=
EXTT13=
EXTT14=
EXTT15=
PLAYORDER=
